<svg width="512" height="512" viewBox="0 0 1024 1024" xmlns="http://www.w3.org/2000/svg">
  <defs>
    <linearGradient id="spaceGrad" x1="0%" y1="0%" x2="100%" y2="100%">
      <stop offset="0%" style="stop-color:#2b1055;stop-opacity:1" />
      <stop offset="100%" style="stop-color:#7597de;stop-opacity:1" />
    </linearGradient>
    <linearGradient id="metalGrad" x1="0%" y1="0%" x2="0%" y2="100%">
      <stop offset="0%" style="stop-color:#e0e0e0;stop-opacity:1" />
      <stop offset="100%" style="stop-color:#9e9e9e;stop-opacity:1" />
    </linearGradient>
  </defs>
  <rect width="1024" height="1024" fill="url(#spaceGrad)" />
  <circle cx="200" cy="200" r="10" fill="white" opacity="0.8"/>
  <circle cx="800" cy="150" r="6" fill="white" opacity="0.6"/>
  <circle cx="900" cy="800" r="8" fill="white" opacity="0.7"/>
  <circle cx="100" cy="900" r="5" fill="white" opacity="0.5"/>
  <circle cx="500" cy="100" r="4" fill="white" opacity="0.4"/>
  <circle cx="512" cy="512" r="280" fill="#7245d8" />
  <path d="M 232 512 C 232 400, 792 400, 792 512" stroke="#4cc9f0" stroke-width="40" fill="none" opacity="0.6" stroke-linecap="round"/>
  <rect x="312" y="472" width="400" height="80" rx="10" fill="#b0bec5" />
  <rect x="232" y="412" width="60" height="200" rx="15" fill="url(#metalGrad)" />
  <rect x="192" y="432" width="40" height="160" rx="10" fill="#78909c" />
  <rect x="732" y="412" width="60" height="200" rx="15" fill="url(#metalGrad)" />
  <rect x="792" y="432" width="40" height="160" rx="10" fill="#78909c" />
</svg>
